<svg width="24" height="24" viewBox="0 0 24 24" fill="none" xmlns="http://www.w3.org/2000/svg">
<path d="M21 22C21 20.4494 21 19.6741 20.8062 19.0432C20.37 17.6227 19.2445 16.5112 17.8063 16.0803C17.1675 15.8889 16.3825 15.8889 14.8125 15.8889H9.1875C7.61749 15.8889 6.83249 15.8889 6.19372 16.0803C4.75551 16.5112 3.63005 17.6227 3.19377 19.0432C3 19.6741 3 20.4494 3 22M17.0625 7C17.0625 9.76142 14.7959 12 12 12C9.20406 12 6.9375 9.76142 6.9375 7C6.9375 4.23858 9.20406 2 12 2C14.7959 2 17.0625 4.23858 17.0625 7Z" stroke="#505050" stroke-width="1.5" stroke-linecap="round" stroke-linejoin="round"/>
</svg>
