<svg width="58" height="58" viewBox="0 0 58 58" fill="none" xmlns="http://www.w3.org/2000/svg">
<circle cx="29" cy="29" r="29" fill="#FDDB00"/>
<g clip-path="url(#clip0_73_13483)">
<path d="M29.0007 13.76C21.1118 13.76 14.7129 19.7291 14.7129 27.0893C14.7129 32.5249 16.9703 35.1224 20.0644 37.4863L20.0782 37.4933V43.8738C20.0782 44.1771 20.4204 44.3479 20.659 44.1666L26.0761 40.1082L26.1936 40.1605C27.1028 40.3279 28.0397 40.4185 29.0007 40.4185C36.8897 40.4185 43.2886 34.4495 43.2886 27.0893C43.2886 19.7291 36.8931 13.76 29.0007 13.76Z" fill="#FDDB00"/>
<path d="M29 13C20.717 13 14 19.2654 14 26.9917C14 32.6993 16.3715 35.4258 19.6177 37.9083L19.6315 37.9152V44.613C19.6315 44.9303 19.991 45.1116 20.2399 44.9198L25.9267 40.6592L26.0512 40.7115C27.0053 40.8893 27.9906 40.9834 29 40.9834C37.283 40.9834 44 34.718 44 26.9882C44 19.2584 37.2865 13 29 13ZM23.9735 30.5376C25.4427 30.5376 26.7011 29.6485 27.0814 28.2783H29.2558C28.7234 30.9176 26.6873 32.647 23.9735 32.647C20.8207 32.647 18.3213 30.2761 18.3213 26.9743C18.3213 23.6725 20.8207 21.3016 23.9735 21.3016C26.7149 21.3016 28.7649 23.0658 29.2696 25.7505H27.1021C26.7737 24.2896 25.4704 23.3796 23.9735 23.3796C21.8543 23.3796 20.4439 24.9032 20.4439 26.9708C20.4439 29.0384 22.0479 30.5341 23.9735 30.5341M38.3028 32.4273H36.3081V27.8913C36.3081 26.8488 35.7066 26.2874 34.7801 26.2874C33.7465 26.2874 33.0793 26.9255 33.0793 28.219V32.4273H31.0846V21.3365H33.0793V25.5099C33.5563 24.7777 34.3307 24.4186 35.3817 24.4186C36.2321 24.4186 36.9269 24.6975 37.4662 25.2763C38.0228 25.8516 38.3028 26.6326 38.3028 27.6437V32.4273Z" fill="#020303"/>
</g>
<defs>
<clipPath id="clip0_73_13483">
<rect width="30" height="32" fill="white" transform="translate(14 13)"/>
</clipPath>
</defs>
</svg>
