<svg width="24" height="24" viewBox="0 0 24 24" fill="none" xmlns="http://www.w3.org/2000/svg">
<path d="M7.61448 20V11.2M3 12.8V18.4C3 19.2837 3.82639 20 4.84579 20H17.2368C18.6034 20 19.7655 19.1357 19.9733 17.9649L20.9672 12.3649C21.2252 10.9111 19.9276 9.6 18.2307 9.6H14.9977C14.488 9.6 14.0748 9.24183 14.0748 8.8V5.97267C14.0748 4.8832 13.0559 4 11.799 4C11.4993 4 11.2276 4.15304 11.1059 4.3905L7.85807 10.7249C7.70994 11.0138 7.37944 11.2 7.01472 11.2H4.84579C3.82639 11.2 3 11.9163 3 12.8Z" stroke="#999999" stroke-width="1.5" stroke-linecap="round" stroke-linejoin="round"/>
</svg>
