<svg width="24" height="24" viewBox="0 0 24 24" fill="none" xmlns="http://www.w3.org/2000/svg">
<g clip-path="url(#clip0_162_17222)">
<path d="M24 11.0132C24 4.93113 18.6282 0 12.0007 0C5.37326 0 0 4.93113 0 11.0132C0 17.0954 5.37326 22.0265 12.0007 22.0265C13.317 22.0265 14.5842 21.8318 15.7705 21.4715L21.0081 24.0013L20.6112 18.6848C22.7097 16.702 24.0014 13.9974 24.0014 11.0146L24 11.0132Z" fill="white"/>
<mask id="mask0_162_17222" style="mask-type:luminance" maskUnits="userSpaceOnUse" x="0" y="0" width="25" height="24">
<path d="M24 11.0132C24 4.93113 18.6282 0 12.0007 0C5.37326 0 0 4.93113 0 11.0132C0 17.0954 5.37326 22.0265 12.0007 22.0265C13.317 22.0265 14.5842 21.8318 15.7705 21.4715L21.0081 24.0013L20.6112 18.6848C22.7097 16.702 24.0014 13.9974 24.0014 11.0146L24 11.0132Z" fill="white"/>
</mask>
<g mask="url(#mask0_162_17222)">
<g filter="url(#filter0_d_162_17222)">
<path d="M26.1664 11.0117C26.1664 3.84351 19.8118 -1.98828 12.0008 -1.98828C4.18989 -1.98828 -2.16479 3.84351 -2.16479 11.0117C-2.16479 18.1799 4.18989 24.0117 12.0008 24.0117C13.2002 24.0117 14.3851 23.874 15.5368 23.6024L23.4329 27.4157L22.8325 19.3879C24.9887 17.0462 26.1664 14.1044 26.1664 11.0117ZM15.7706 21.47C14.5843 21.8289 13.3171 22.025 12.0008 22.025C5.37336 22.025 9.77516e-05 17.0938 9.77516e-05 11.0117C9.77516e-05 4.9296 5.37336 -0.00152612 12.0008 -0.00152612C18.6283 -0.00152612 24.0015 4.9296 24.0015 11.0117C24.0015 13.9945 22.7084 16.6991 20.6099 18.6819L21.0082 23.9998L15.7706 21.47Z" fill="white"/>
</g>
</g>
<path d="M14.8181 5.70481C14.0892 5.126 13.1453 4.83594 11.9879 4.83594C10.8304 4.83594 9.86337 5.13792 9.08834 5.74057C8.73186 6.01739 8.44465 6.34322 8.22527 6.71806C7.82116 7.40547 8.37248 8.23991 9.22401 8.23991H9.23844C9.69018 8.23991 10.0842 7.98561 10.2776 7.61077C10.3743 7.42402 10.5042 7.2611 10.6702 7.12071C11.0021 6.83991 11.4149 6.69951 11.9099 6.69951C12.405 6.69951 12.8076 6.84653 13.1208 7.13792C13.4326 7.43064 13.5899 7.79753 13.5899 8.23991C13.5899 8.6823 13.4398 9.05183 13.141 9.35117C12.6922 9.76309 12.2375 10.171 11.7858 10.579C11.386 10.9392 10.9963 11.3379 10.8188 11.8359C10.6586 12.2863 10.5619 13.1604 10.992 13.5048C11.373 13.8094 11.9778 13.8532 12.428 13.6571C12.7167 13.5313 12.8884 13.2876 12.9202 13.0002C12.9375 12.8452 12.9289 12.6876 12.952 12.5326C12.9967 12.2412 13.154 11.9724 13.3561 11.7432C13.6 11.4664 13.9059 11.2333 14.1874 10.9909C14.4024 10.8055 14.5742 10.6532 14.7041 10.534C14.834 10.4147 15.023 10.2121 15.2698 9.92468C15.6999 9.44653 15.9135 8.84918 15.9135 8.13263C15.9135 7.09289 15.5484 6.28494 14.8195 5.70481H14.8181Z" fill="#23A7DE"/>
<path d="M11.8407 15.0664C11.4308 15.0664 11.0787 15.1975 10.7871 15.4611C10.4942 15.7247 10.3484 16.0373 10.3484 16.4015C10.3484 16.7657 10.4985 17.077 10.7972 17.3326C11.096 17.5896 11.451 17.7181 11.8609 17.7181C12.2708 17.7181 12.623 17.5869 12.9145 17.3234C13.2075 17.0611 13.3533 16.7472 13.3533 16.383C13.3533 16.0187 13.2032 15.7088 12.9044 15.4518C12.6042 15.1949 12.2506 15.0664 11.8407 15.0664Z" fill="#23A7DE"/>
</g>
<defs>
<filter id="filter0_d_162_17222" x="-11.1648" y="-10.9883" width="40.3312" height="41.4023" filterUnits="userSpaceOnUse" color-interpolation-filters="sRGB">
<feFlood flood-opacity="0" result="BackgroundImageFix"/>
<feColorMatrix in="SourceAlpha" type="matrix" values="0 0 0 0 0 0 0 0 0 0 0 0 0 0 0 0 0 0 127 0" result="hardAlpha"/>
<feOffset dx="-3" dy="-3"/>
<feGaussianBlur stdDeviation="3"/>
<feColorMatrix type="matrix" values="0 0 0 0 0.607843 0 0 0 0 0.607843 0 0 0 0 0.607843 0 0 0 0.75 0"/>
<feBlend mode="normal" in2="BackgroundImageFix" result="effect1_dropShadow_162_17222"/>
<feBlend mode="normal" in="SourceGraphic" in2="effect1_dropShadow_162_17222" result="shape"/>
</filter>
<clipPath id="clip0_162_17222">
<rect width="24" height="24" fill="white"/>
</clipPath>
</defs>
</svg>
