<svg width="16" height="16" viewBox="0 0 16 16" fill="none" xmlns="http://www.w3.org/2000/svg">
<path d="M10.478 1.64709C10.4973 1.58432 10.5041 1.51836 10.4979 1.45298C10.4917 1.3876 10.4727 1.32408 10.442 1.26604C10.4112 1.208 10.3694 1.15659 10.3188 1.11473C10.2682 1.07288 10.2098 1.0414 10.147 1.02209C10.0843 1.00279 10.0183 0.996037 9.95293 1.00222C9.88755 1.00841 9.82402 1.02742 9.76599 1.05815C9.70795 1.08889 9.65654 1.13075 9.61468 1.18136C9.57282 1.23197 9.54134 1.29032 9.52204 1.35309L5.52204 14.3531C5.48305 14.4799 5.49602 14.6169 5.5581 14.7341C5.62017 14.8514 5.72627 14.9391 5.85304 14.9781C5.97981 15.0171 6.11688 15.0041 6.23409 14.942C6.3513 14.88 6.43905 14.7739 6.47804 14.6471L10.478 1.64709ZM4.85404 4.14609C4.9006 4.19254 4.93755 4.24771 4.96275 4.30846C4.98796 4.3692 5.00093 4.43433 5.00093 4.50009C5.00093 4.56586 4.98796 4.63098 4.96275 4.69173C4.93755 4.75247 4.9006 4.80765 4.85404 4.85409L1.70704 8.00009L4.85404 11.1461C4.94793 11.24 5.00067 11.3673 5.00067 11.5001C5.00067 11.6329 4.94793 11.7602 4.85404 11.8541C4.76015 11.948 4.63281 12.0007 4.50004 12.0007C4.36726 12.0007 4.23993 11.948 4.14604 11.8541L0.646039 8.35409C0.599476 8.30765 0.562533 8.25247 0.537327 8.19173C0.51212 8.13098 0.499146 8.06586 0.499146 8.00009C0.499146 7.93433 0.51212 7.8692 0.537327 7.80846C0.562533 7.74771 0.599476 7.69254 0.646039 7.64609L4.14604 4.14609C4.19248 4.09953 4.24766 4.06259 4.30841 4.03738C4.36915 4.01217 4.43427 3.9992 4.50004 3.9992C4.56581 3.9992 4.63093 4.01217 4.69167 4.03738C4.75242 4.06259 4.80759 4.09953 4.85404 4.14609ZM11.146 4.14609C11.0995 4.19254 11.0625 4.24771 11.0373 4.30846C11.0121 4.3692 10.9991 4.43433 10.9991 4.50009C10.9991 4.56586 11.0121 4.63098 11.0373 4.69173C11.0625 4.75247 11.0995 4.80765 11.146 4.85409L14.293 8.00009L11.146 11.1461C11.0996 11.1926 11.0627 11.2478 11.0375 11.3085C11.0124 11.3692 10.9994 11.4343 10.9994 11.5001C10.9994 11.5658 11.0124 11.6309 11.0375 11.6917C11.0627 11.7524 11.0996 11.8076 11.146 11.8541C11.1925 11.9006 11.2477 11.9375 11.3085 11.9626C11.3692 11.9878 11.4343 12.0007 11.5 12.0007C11.5658 12.0007 11.6309 11.9878 11.6916 11.9626C11.7524 11.9375 11.8076 11.9006 11.854 11.8541L15.354 8.35409C15.4006 8.30765 15.4375 8.25247 15.4628 8.19173C15.488 8.13098 15.5009 8.06586 15.5009 8.00009C15.5009 7.93433 15.488 7.8692 15.4628 7.80846C15.4375 7.74771 15.4006 7.69254 15.354 7.64609L11.854 4.14609C11.8076 4.09953 11.7524 4.06259 11.6917 4.03738C11.6309 4.01217 11.5658 3.9992 11.5 3.9992C11.4343 3.9992 11.3692 4.01217 11.3084 4.03738C11.2477 4.06259 11.1925 4.09953 11.146 4.14609Z" fill="#999999"/>
</svg>
