<svg width="28" height="28" viewBox="0 0 28 28" fill="none" xmlns="http://www.w3.org/2000/svg">
<path fill-rule="evenodd" clip-rule="evenodd" d="M13.6125 0.113077C13.7266 0.0393077 13.8616 0 14 0C14.1384 0 14.2734 0.0393077 14.3875 0.113077L17.787 2.29869C17.8407 2.33262 17.8994 2.36008 17.9604 2.37892C18.022 2.39831 18.0858 2.40908 18.1508 2.41123L22.2484 2.548C22.3862 2.55231 22.5201 2.59646 22.6314 2.674C22.7432 2.751 22.8285 2.85869 22.8753 2.98254L24.2783 6.65539C24.3004 6.71354 24.3309 6.76792 24.3693 6.818C24.4071 6.86754 24.4523 6.91223 24.5031 6.94992L27.7338 9.35739C27.8428 9.43815 27.9236 9.54854 27.9659 9.674C28.0089 9.79892 28.0111 9.93354 27.9733 10.0601L26.8437 13.818C26.8256 13.8772 26.8166 13.9386 26.8166 14C26.8166 14.0614 26.8256 14.1228 26.8437 14.182L27.9733 17.9399C28.0111 18.0665 28.0089 18.2011 27.9659 18.326C27.9236 18.4515 27.8428 18.5618 27.7338 18.6426L24.5031 21.0501C24.4523 21.0878 24.4071 21.1325 24.3693 21.182C24.3309 21.2321 24.3004 21.2865 24.2783 21.3446L22.8753 25.0175C22.8285 25.1413 22.7432 25.249 22.6314 25.326C22.5201 25.4035 22.3862 25.4477 22.2484 25.452L18.1508 25.5888C18.0858 25.5909 18.022 25.6017 17.9604 25.6211C17.8994 25.6399 17.8407 25.6674 17.787 25.7013L14.3875 27.8869C14.2734 27.9607 14.1384 28 14 28C13.8616 28 13.7266 27.9607 13.6125 27.8869L10.213 25.7013C10.1593 25.6674 10.1006 25.6399 10.0396 25.6211C9.97802 25.6017 9.9142 25.5909 9.84925 25.5888L5.75159 25.452C5.61377 25.4477 5.47992 25.4035 5.36865 25.326C5.25682 25.249 5.17153 25.1413 5.12465 25.0175L3.72168 21.3446C3.69965 21.2865 3.66915 21.2321 3.63074 21.182C3.5929 21.1325 3.54772 21.0878 3.49689 21.0501L0.266201 18.6426C0.157193 18.5618 0.0764262 18.4515 0.0340658 18.326C-0.0088594 18.2011 -0.0111184 18.0665 0.0267236 17.9399L1.15633 14.182C1.17441 14.1228 1.18344 14.0614 1.18344 14C1.18344 13.9386 1.17441 13.8772 1.15633 13.818L0.0267236 10.0601C-0.0111184 9.93354 -0.0088594 9.79892 0.0340658 9.674C0.0764262 9.54854 0.157193 9.43815 0.266201 9.35739L3.49689 6.94992C3.54772 6.91223 3.5929 6.86754 3.63074 6.818C3.66915 6.76792 3.69965 6.71354 3.72168 6.65539L5.12465 2.98254C5.17153 2.85869 5.25682 2.751 5.36865 2.674C5.47992 2.59646 5.61377 2.55231 5.75159 2.548L9.84925 2.41123C9.9142 2.40908 9.97802 2.39831 10.0396 2.37892C10.1006 2.36008 10.1593 2.33262 10.213 2.29869L13.6125 0.113077Z" fill="#02A79D"/>
<path opacity="0.9" d="M14 25C20.0751 25 25 20.0751 25 14C25 7.92487 20.0751 3 14 3C7.92483 3 2.99996 7.92487 2.99996 14C2.99996 20.0751 7.92483 25 14 25Z" fill="white"/>
<path fill-rule="evenodd" clip-rule="evenodd" d="M13.7389 9.14085C13.7796 9.05634 13.884 9 14 9C14.116 9 14.2204 9.05634 14.2611 9.14085C14.7977 10.2533 16.0077 12.7621 16.4111 13.5989C16.4423 13.6635 16.5115 13.7129 16.5974 13.7315C16.6827 13.7502 16.7748 13.7359 16.8451 13.6934C17.5826 13.2423 19.5027 12.0687 20.5487 11.4295C20.6447 11.371 20.7785 11.3675 20.879 11.4212C20.9794 11.475 21.0234 11.5733 20.9877 11.6639C20.2993 13.3918 18.4813 17.9547 18.1259 18.8475C18.0897 18.938 17.9814 19 17.8593 19C16.7279 19 11.2721 19 10.1407 19C10.0186 19 9.91034 18.938 9.87408 18.8475C9.51872 17.9547 7.70066 13.3918 7.01226 11.6639C6.97656 11.5733 7.02063 11.475 7.12104 11.4212C7.22146 11.3675 7.35534 11.371 7.45129 11.4295C8.49728 12.0687 10.4174 13.2423 11.1549 13.6934C11.2252 13.7359 11.3173 13.7502 11.4026 13.7315C11.4885 13.7129 11.5577 13.6635 11.5889 13.5989C11.9923 12.7621 13.2023 10.2533 13.7389 9.14085Z" fill="#02A79D"/>
</svg>
