<svg width="29" height="28" viewBox="0 0 29 28" fill="none" xmlns="http://www.w3.org/2000/svg">
<circle cx="14.5" cy="14" r="8" fill="#F1F1F5" stroke="#F1F1F5" stroke-width="12"/>
<path d="M26.622 14.0835C26.622 17.7447 24.9872 21.0246 22.4075 23.2323C20.3036 25.0329 17.5714 26.12 14.5852 26.12C11.5989 26.12 8.86675 25.0324 6.76283 23.2323C4.18361 21.0246 2.54883 17.7453 2.54883 14.0835C2.54883 7.43588 7.93772 2.04688 14.5852 2.04688C21.2326 2.04688 26.6215 7.43588 26.6215 14.0835H26.622Z" fill="#B1B1B1"/>
<path d="M14.5852 16.034C17.3032 16.034 19.5065 13.8307 19.5065 11.1127C19.5065 8.39474 17.3032 6.19141 14.5852 6.19141C11.8673 6.19141 9.66394 8.39474 9.66394 11.1127C9.66394 13.8307 11.8673 16.034 14.5852 16.034Z" fill="white"/>
<path d="M22.4076 23.2323C20.3037 25.0328 17.5715 26.12 14.5853 26.12C11.599 26.12 8.86686 25.0323 6.76294 23.2323L6.79168 22.835C7.03344 19.4895 9.81796 16.8984 13.1722 16.8984H15.9983C19.3526 16.8984 22.1371 19.4895 22.3789 22.835L22.4076 23.2323Z" fill="white"/>
</svg>
