<svg width="24" height="24" viewBox="0 0 24 24" fill="none" xmlns="http://www.w3.org/2000/svg">
<path d="M23.766 9.64664H22.8V9.59865H12V14.398H18.78C17.79 17.1936 15.132 19.1973 12 19.1973C8.022 19.1973 4.8 15.9758 4.8 11.9983C4.8 8.02087 8.022 4.79933 12 4.79933C13.836 4.79933 15.504 5.48923 16.776 6.62307L20.172 3.22755C18.03 1.22983 15.162 0 12 0C5.37 0 0 5.36925 0 11.9983C0 18.6274 5.37 23.9966 12 23.9966C18.63 23.9966 24 18.6214 24 11.9983C24 11.1944 23.916 10.4085 23.766 9.64664Z" fill="#FAB409"/>
<path d="M1.38281 6.4131L5.32481 9.30469C6.39281 6.66506 8.97281 4.79933 11.9968 4.79933C13.8328 4.79933 15.5008 5.48923 16.7728 6.62307L20.1688 3.22755C18.0268 1.22983 15.1588 0 11.9968 0C7.38881 0 3.39281 2.60363 1.38281 6.4131Z" fill="#E73B2F"/>
<path d="M12.0003 24.0001C15.1023 24.0001 17.9163 22.8122 20.0462 20.8865L16.3322 17.7429C15.1262 18.6548 13.6322 19.2007 12.0003 19.2007C8.88025 19.2007 6.22825 17.209 5.23225 14.4314L1.32025 17.449C3.30625 21.3364 7.33825 24.0001 12.0003 24.0001Z" fill="#2E9E49"/>
<path d="M23.7659 9.64809H22.7999V9.6001H11.9999V14.3994H18.7799C18.3059 15.7432 17.4419 16.9011 16.3259 17.741L20.0399 20.8845C19.7759 21.1245 23.9939 17.9989 23.9939 11.9998C23.9939 11.1959 23.9099 10.41 23.7599 9.64809H23.7659Z" fill="#3A7AF2"/>
</svg>
