<svg width="24" height="28" viewBox="0 0 24 28" fill="none" xmlns="http://www.w3.org/2000/svg">
<path d="M19.7095 14.8742C19.7489 19.1111 23.4592 20.5213 23.5 20.5395C23.4684 20.6386 22.907 22.5492 21.5449 24.5223C20.3682 26.2283 19.1454 27.9277 17.2206 27.9629C15.3286 27.9981 14.7211 26.8512 12.5583 26.8512C10.3955 26.8512 9.721 27.9277 7.93026 27.9981C6.07246 28.0685 4.65775 26.154 3.47049 24.4545C1.04602 20.9761 -0.807835 14.6305 1.68106 10.3453C2.91697 8.21841 5.12713 6.87083 7.5253 6.83564C9.35023 6.80176 11.0713 8.0529 12.1875 8.0529C13.3038 8.0529 15.3943 6.54762 17.5953 6.76918C18.5156 6.80697 21.1018 7.138 22.7611 9.54644C22.6283 9.62855 19.6766 11.3319 19.7095 14.8742ZM16.1543 4.47021C17.1404 3.28684 17.8043 1.63951 17.6229 0C16.2016 0.0560405 14.4819 0.939657 13.4616 2.12172C12.5478 3.16955 11.7471 4.84555 11.9627 6.45248C13.5484 6.57369 15.1682 5.65358 16.1543 4.47021Z" fill="white"/>
</svg>
